<svg width="32" height="26" viewBox="0 0 32 26" fill="none" xmlns="http://www.w3.org/2000/svg">
<path d="M19.375 9.64844C19.03 9.64844 18.75 9.87594 18.75 10.1562C18.75 10.4366 19.03 10.6641 19.375 10.6641C19.72 10.6641 20 10.4366 20 10.1562C20 9.87594 19.72 9.64844 19.375 9.64844Z" fill="#F7B731"/>
<path d="M31.2676 22.5326L22.9251 15.7543C24.2841 14.091 25 12.1649 25 10.1562C25 4.55609 19.3925 0 12.5 0C5.6075 0 0 4.55609 0 10.1562C0 15.7564 5.6075 20.3125 12.5 20.3125C14.9722 20.3125 17.3429 19.7308 19.3899 18.6267L21.6959 20.5002C21.6962 20.5005 21.6965 20.5007 21.6969 20.5011L27.7324 25.4049C28.2048 25.7886 28.8324 26 29.5 26C30.1676 26 30.7953 25.7886 31.2674 25.405C31.7398 25.0215 32 24.5114 32 23.9688C32 23.4261 31.7398 22.916 31.2676 22.5326ZM19.096 17.5564C19.096 17.5565 19.0959 17.5565 19.0959 17.5566C17.1667 18.6951 14.8859 19.2969 12.5 19.2969C6.29675 19.2969 1.25 15.1964 1.25 10.1562C1.25 5.11611 6.29675 1.01562 12.5 1.01562C18.7033 1.01562 23.75 5.11611 23.75 10.1562C23.75 12.0948 23.0093 13.9479 21.608 15.5154C20.9069 16.3002 20.0618 16.9869 19.096 17.5564ZM20.4072 18.0168C21.0541 17.5869 21.6454 17.1064 22.1746 16.5809L23.9478 18.0216C23.4085 18.5387 22.8169 19.0195 22.1804 19.4575L20.4072 18.0168ZM30.3837 24.6867C30.1474 24.8787 29.8336 24.9844 29.5 24.9844C29.1664 24.9844 28.8526 24.8787 28.6163 24.6867L23.0666 20.1776C23.6996 19.7363 24.2908 19.2559 24.8339 18.7417L30.3838 23.251C30.6199 23.4426 30.75 23.6975 30.75 23.9688C30.75 24.24 30.6199 24.4949 30.3837 24.6867Z" fill="#F7B731"/>
<path d="M12.5 2.03125C6.98594 2.03125 2.5 5.67607 2.5 10.1562C2.5 14.6364 6.98594 18.2812 12.5 18.2812C18.0141 18.2812 22.5 14.6364 22.5 10.1562C22.5 5.67607 18.0141 2.03125 12.5 2.03125ZM12.5 17.2656C7.67525 17.2656 3.75 14.0764 3.75 10.1562C3.75 6.23614 7.67525 3.04688 12.5 3.04688C17.3247 3.04688 21.25 6.23614 21.25 10.1562C21.25 14.0764 17.3247 17.2656 12.5 17.2656Z" fill="#F7B731"/>
<path d="M19.5041 7.97636C18.9659 6.83825 18.0288 5.86518 16.7941 5.16242C15.5299 4.44285 14.0451 4.0625 12.5 4.0625C12.1549 4.0625 11.875 4.2899 11.875 4.57031C11.875 4.85073 12.1549 5.07812 12.5 5.07812C15.0687 5.07812 17.4144 6.38919 18.3373 8.34067C18.4328 8.54257 18.6696 8.66648 18.9208 8.66648C18.9953 8.66648 19.0711 8.65556 19.1448 8.63256C19.467 8.53196 19.6279 8.23819 19.5041 7.97636Z" fill="#F7B731"/>
</svg>
