<svg width="171" height="312" viewBox="0 0 171 312" fill="none" xmlns="http://www.w3.org/2000/svg">
<path d="M169.257 120.114C167.394 87.355 152.69 56.584 128.238 34.2788L92.6807 1.724C90.8491 -0.0188804 88.1258 -0.487635 85.802 0.534815C83.4558 1.58243 81.9823 3.91047 82.0622 6.44301V193.385C75.7365 191.381 69.1359 190.339 62.4873 190.308C40.2978 190.125 19.7065 201.665 8.5414 220.541C-2.62368 239.42 -2.64925 262.738 8.47108 281.639C19.5914 300.544 40.1508 312.13 62.3435 311.998C96.4333 311.998 124.335 284.704 124.335 251.152C124.335 229.318 112.339 210.14 95.1547 199.403V21.2355L119.515 43.7137C141.461 63.7694 154.643 91.4259 156.28 120.857L157.108 135.803C157.315 139.346 160.403 142.051 164.002 141.847C167.602 141.639 170.35 138.603 170.143 135.058L169.257 120.114ZM111.028 251.155C111.031 277.641 89.2158 299.119 62.3019 299.119C35.3881 299.122 13.5694 277.65 13.5662 251.161C13.5662 224.672 35.3817 203.197 62.2955 203.197C89.1966 203.225 110.996 224.678 111.028 251.155Z" fill="#CED6E0" fill-opacity="0.75"/>
</svg>
